<?xml version="1.0" standalone="no"?>
<!DOCTYPE svg PUBLIC "-//W3C//DTD SVG 20010904//EN"
 "http://www.w3.org/TR/2001/REC-SVG-20010904/DTD/svg10.dtd">
<svg version="1.0" xmlns="http://www.w3.org/2000/svg"
 width="400.000000pt" height="400.000000pt" viewBox="0 0 400.000000 400.000000"
 preserveAspectRatio="xMidYMid meet">
<metadata>
Created by potrace 1.14, written by Peter Selinger 2001-2017
</metadata>
<g transform="translate(0.000000,400.000000) scale(0.100000,-0.100000)"
fill="#000000" stroke="none">
<path d="M1788 2734 c-3 -3 -4 -26 -1 -52 l4 -47 -20 33 c-39 62 -69 27 -58
-67 l6 -47 -30 4 c-34 5 -37 -7 -14 -61 20 -47 19 -54 -3 -34 -32 29 -42 4
-26 -66 35 -150 132 -285 262 -365 l34 -20 -46 -31 c-55 -38 -193 -94 -212
-87 -10 4 -12 2 -8 -6 5 -8 -8 -9 -45 -6 -29 3 -47 2 -41 -2 10 -6 -18 -16
-67 -22 -7 -1 -10 -5 -7 -9 2 -4 -1 -11 -6 -14 -15 -9 20 -34 38 -28 8 3 13 0
12 -8 -5 -29 0 -50 10 -44 6 3 10 -4 11 -17 0 -13 3 -17 6 -10 2 6 11 12 19
12 8 0 14 5 14 10 0 18 18 10 23 -10 3 -11 11 -20 19 -20 16 0 98 58 98 69 0
4 24 19 53 34 36 18 82 29 152 37 91 11 165 30 251 66 38 16 114 75 192 150
39 37 75 61 114 76 60 21 68 38 19 38 -20 0 -30 6 -34 20 -6 23 -44 40 -89 40
l-31 0 6 79 c5 69 4 81 -13 96 -23 21 -36 14 -45 -25 -7 -33 -14 -37 -33 -18
-10 10 -15 5 -24 -19 -7 -18 -20 -34 -30 -36 -14 -4 -18 -15 -18 -52 0 -28 -4
-44 -10 -40 -5 3 -10 15 -10 25 0 12 -30 42 -82 82 -114 85 -114 85 -173 206
-37 75 -55 70 -27 -8 4 -11 -1 -10 -16 4 -12 11 -41 59 -64 108 -40 84 -48 95
-60 82z"/>
<path d="M2417 2453 c-4 -3 -7 -11 -7 -17 0 -6 5 -5 12 2 6 6 9 14 7 17 -3 3
-9 2 -12 -2z"/>
<path d="M2974 2355 c-18 -9 -19 -13 -8 -23 9 -8 12 -23 9 -40 l-6 -27 16 28
c9 15 15 38 13 50 -3 20 -6 21 -24 12z"/>
<path d="M2961 2244 c0 -11 3 -14 6 -6 3 7 2 16 -1 19 -3 4 -6 -2 -5 -13z"/>
<path d="M990 1690 c0 -6 103 -10 290 -10 187 0 290 4 290 10 0 6 -103 10
-290 10 -187 0 -290 -4 -290 -10z"/>
<path d="M1003 1628 c-25 -41 -223 -435 -223 -442 0 -3 22 -6 49 -6 l49 0 39
75 38 75 120 -1 120 0 37 -72 36 -72 74 0 73 0 5 75 c5 68 7 75 28 78 26 4 30
32 4 32 -26 0 -33 10 -21 31 5 11 21 19 34 19 18 0 25 5 25 20 0 23 -23 26
-67 9 -32 -12 -43 -26 -43 -56 0 -14 -6 -23 -15 -23 -8 0 -15 -6 -15 -14 0 -8
7 -16 15 -20 11 -4 15 -22 15 -71 0 -36 -3 -65 -8 -65 -4 0 -35 56 -70 125
-46 93 -61 132 -56 150 7 28 22 33 30 10 4 -8 15 -15 25 -15 19 0 19 1 -2 30
-18 24 -20 32 -9 44 17 21 28 12 40 -34 13 -46 34 -52 48 -12 l10 27 7 -27
c14 -52 41 -31 61 47 5 19 2 25 -10 25 -9 0 -16 -8 -16 -20 0 -11 -4 -20 -9
-20 -5 0 -11 9 -14 20 -8 29 -34 24 -42 -7 l-7 -28 -10 28 c-8 21 -16 27 -38
27 -16 0 -32 -4 -35 -10 -11 -18 -26 -10 -25 13 3 35 1 47 -10 47 -6 0 -10
-28 -10 -65 0 -36 -3 -65 -7 -64 -5 0 -26 37 -48 82 l-40 82 -56 3 c-55 3 -57
2 -76 -30z m157 -235 c0 -15 -170 -13 -171 2 0 6 19 50 42 99 l43 89 43 -89
c24 -49 43 -94 43 -101z"/>
<path d="M1570 1545 l0 -75 38 0 c21 0 43 5 49 11 9 9 15 8 26 -3 10 -9 27
-13 46 -10 27 4 31 8 31 37 0 53 -9 65 -46 65 -19 0 -34 -4 -34 -10 0 -5 12
-10 26 -10 14 0 23 -4 19 -10 -3 -5 -15 -10 -26 -10 -10 0 -19 -6 -19 -12 -1
-7 -7 1 -15 19 -10 23 -21 32 -42 35 -15 2 -29 9 -29 16 -3 29 -4 32 -14 32
-6 0 -10 -32 -10 -75z m65 -25 c0 -16 -6 -26 -17 -28 -14 -3 -18 3 -18 28 0
25 4 31 18 28 11 -2 17 -12 17 -28z m95 -20 c0 -5 -7 -10 -15 -10 -8 0 -15 5
-15 10 0 6 7 10 15 10 8 0 15 -4 15 -10z"/>
<path d="M1803 1598 c2 -7 11 -12 21 -10 13 2 16 -7 16 -56 0 -44 4 -61 15
-66 12 -4 15 6 15 59 0 36 3 64 8 64 18 -3 32 2 32 11 0 6 -25 10 -56 10 -40
0 -54 -3 -51 -12z"/>
<path d="M1493 1572 c-32 -5 -29 -22 5 -23 l27 -1 -27 -11 c-28 -11 -44 -39
-33 -57 3 -5 24 -10 46 -10 39 0 39 0 39 38 0 45 -23 70 -57 64z m27 -72 c0
-5 -7 -10 -15 -10 -8 0 -15 5 -15 10 0 6 7 10 15 10 8 0 15 -4 15 -10z"/>
<path d="M1912 1558 c-23 -28 -18 -74 9 -89 46 -24 95 32 69 80 -12 24 -61 29
-78 9z m56 -36 c2 -13 -3 -25 -13 -28 -23 -9 -38 10 -30 36 9 27 39 22 43 -8z"/>
<path d="M1634 1429 c-3 -6 1 -18 10 -27 15 -15 17 -15 32 0 19 19 11 38 -16
38 -10 0 -22 -5 -26 -11z"/>
<path d="M1571 1371 c-8 -5 -28 -7 -45 -4 l-31 5 3 -89 c2 -48 7 -92 12 -97
17 -17 30 7 30 55 0 61 11 85 45 93 17 4 25 12 23 23 -4 20 -18 26 -37 14z"/>
<path d="M1793 1369 c-91 -27 -96 -150 -8 -179 44 -14 105 -5 105 15 0 11 -12
15 -43 15 -50 0 -77 22 -77 62 0 36 29 58 78 58 31 0 42 4 42 15 0 8 -6 15
-12 15 -7 0 -22 2 -33 4 -11 3 -34 0 -52 -5z"/>
<path d="M1948 1367 c-38 -17 -22 -32 31 -32 59 0 67 -22 10 -31 -49 -8 -79
-34 -79 -69 0 -37 35 -55 100 -50 30 2 58 4 63 5 4 0 7 31 7 69 0 51 -5 74
-17 89 -22 26 -79 36 -115 19z m80 -114 c-2 -23 -8 -29 -35 -31 -28 -3 -33 0
-33 18 0 12 9 24 23 30 39 16 49 12 45 -17z"/>
<path d="M1642 1278 c2 -75 6 -93 18 -93 12 0 16 18 18 93 3 87 2 92 -18 92
-20 0 -21 -5 -18 -92z"/>
<path d="M780 1150 c0 -7 225 -10 655 -10 430 0 655 3 655 10 0 7 -225 10
-655 10 -430 0 -655 -3 -655 -10z"/>
</g>
</svg>
